<svg xmlns="http://www.w3.org/2000/svg" xmlns:xlink="http://www.w3.org/1999/xlink" viewBox="0 0 242.45 190.72"><defs><style>.cls-1{isolation:isolate;}.cls-2{fill:url(#Áåçûìÿííûé_ãðàäèåíò_41);}.cls-3{fill:url(#Áåçûìÿííûé_ãðàäèåíò_33);}.cls-4{fill:#1d2243;}.cls-5{fill:#cf5b44;}.cls-6{fill:url(#Áåçûìÿííûé_ãðàäèåíò_41-2);}.cls-7{fill:url(#Áåçûìÿííûé_ãðàäèåíò_11);}.cls-14,.cls-18,.cls-23,.cls-24,.cls-25,.cls-28,.cls-8{mix-blend-mode:screen;}.cls-8{fill:url(#Áåçûìÿííûé_ãðàäèåíò_7);}.cls-9{fill:url(#Áåçûìÿííûé_ãðàäèåíò_41-3);}.cls-10{fill:#c9ffef;}.cls-11{fill:#44cfb8;}.cls-12{fill:#a4ede0;}.cls-13{fill:#ebfffc;}.cls-14{fill:url(#Áåçûìÿííûé_ãðàäèåíò_7-2);}.cls-15{fill:#94122e;}.cls-16{fill:url(#Áåçûìÿííûé_ãðàäèåíò_11-2);}.cls-17{fill:url(#Áåçûìÿííûé_ãðàäèåíò_41-4);}.cls-18{fill:url(#Áåçûìÿííûé_ãðàäèåíò_7-3);}.cls-19{fill:url(#Áåçûìÿííûé_ãðàäèåíò_33-2);}.cls-20{fill:url(#Áåçûìÿííûé_ãðàäèåíò_11-3);}.cls-21{fill:url(#Áåçûìÿííûé_ãðàäèåíò_11-4);}.cls-22{fill:url(#Áåçûìÿííûé_ãðàäèåíò_41-5);}.cls-23{fill:url(#Áåçûìÿííûé_ãðàäèåíò_7-4);}.cls-24{fill:url(#Áåçûìÿííûé_ãðàäèåíò_7-5);}.cls-25{fill:url(#Áåçûìÿííûé_ãðàäèåíò_7-6);}.cls-26{fill:url(#Áåçûìÿííûé_ãðàäèåíò_116);}.cls-27{fill:url(#Áåçûìÿííûé_ãðàäèåíò_41-6);}.cls-28{fill:url(#Áåçûìÿííûé_ãðàäèåíò_7-7);}.cls-29{fill:url(#Áåçûìÿííûé_ãðàäèåíò_116-2);}</style><linearGradient id="Áåçûìÿííûé_ãðàäèåíò_41" x1="102.98" y1="129.02" x2="112.09" y2="129.02" gradientTransform="matrix(1, 0.1, -0.1, 1, 16.05, -8.83)" gradientUnits="userSpaceOnUse"><stop offset="0" stop-color="#fba746"/><stop offset="1" stop-color="#de731f"/></linearGradient><radialGradient id="Áåçûìÿííûé_ãðàäèåíò_33" cx="97.92" cy="144.71" r="23.52" gradientTransform="matrix(1, 0.1, -0.1, 1, 16.05, -8.83)" gradientUnits="userSpaceOnUse"><stop offset="0" stop-color="#3e6785"/><stop offset="1" stop-color="#1d2243"/></radialGradient><linearGradient id="Áåçûìÿííûé_ãðàäèåíò_41-2" x1="142.79" y1="191.84" x2="135.16" y2="158.05" gradientTransform="matrix(1, 0, 0.19, 1, -40.47, 0)" xlink:href="#Áåçûìÿííûé_ãðàäèåíò_41"/><linearGradient id="Áåçûìÿííûé_ãðàäèåíò_11" x1="126.92" y1="166.7" x2="131.52" y2="194.3" gradientTransform="matrix(1, 0, 0.19, 1, -40.47, 0)" gradientUnits="userSpaceOnUse"><stop offset="0" stop-color="#ff8759"/><stop offset="1" stop-color="#ab1535"/></linearGradient><linearGradient id="Áåçûìÿííûé_ãðàäèåíò_7" x1="133.56" y1="159.78" x2="132.91" y2="187.65" gradientTransform="matrix(1, 0, 0.19, 1, -40.47, 0)" gradientUnits="userSpaceOnUse"><stop offset="0" stop-color="#bcbd99"/><stop offset="0.16" stop-color="#9c9d7f"/><stop offset="0.74" stop-color="#2c2d24"/><stop offset="1"/></linearGradient><linearGradient id="Áåçûìÿííûé_ãðàäèåíò_41-3" x1="161.38" y1="157.89" x2="129.95" y2="119.72" gradientTransform="matrix(0.98, 0, 0.19, 1.02, -25.88, -4.13)" xlink:href="#Áåçûìÿííûé_ãðàäèåíò_41"/><linearGradient id="Áåçûìÿííûé_ãðàäèåíò_7-2" x1="129.69" y1="117.49" x2="147.28" y2="144.81" gradientTransform="matrix(0.98, 0, 0.19, 1.02, -25.88, -4.13)" xlink:href="#Áåçûìÿííûé_ãðàäèåíò_7"/><linearGradient id="Áåçûìÿííûé_ãðàäèåíò_11-2" x1="187.07" y1="162.12" x2="188.43" y2="192.67" gradientTransform="matrix(1, 0, 0.2, 1, -40.43, 0)" xlink:href="#Áåçûìÿííûé_ãðàäèåíò_11"/><linearGradient id="Áåçûìÿííûé_ãðàäèåíò_41-4" x1="189.4" y1="203.87" x2="186.02" y2="136.46" gradientTransform="matrix(1, 0, 0.2, 1, -40.43, 0)" xlink:href="#Áåçûìÿííûé_ãðàäèåíò_41"/><linearGradient id="Áåçûìÿííûé_ãðàäèåíò_7-3" x1="183.18" y1="147.14" x2="188.3" y2="180.18" gradientTransform="matrix(1, 0, 0.2, 1, -40.43, 0)" xlink:href="#Áåçûìÿííûé_ãðàäèåíò_7"/><radialGradient id="Áåçûìÿííûé_ãðàäèåíò_33-2" cx="106.6" cy="38.37" r="65.06" gradientTransform="matrix(1, 0, 0, 1, 0, 0)" xlink:href="#Áåçûìÿííûé_ãðàäèåíò_33"/><linearGradient id="Áåçûìÿííûé_ãðàäèåíò_11-3" x1="176.97" y1="31.52" x2="171.23" y2="73.93" gradientTransform="matrix(1, 0, 0, 1, 0, 0)" xlink:href="#Áåçûìÿííûé_ãðàäèåíò_11"/><linearGradient id="Áåçûìÿííûé_ãðàäèåíò_11-4" x1="177.08" y1="34.53" x2="171.07" y2="78.94" gradientTransform="matrix(1, 0, 0, 1, 0, 0)" xlink:href="#Áåçûìÿííûé_ãðàäèåíò_11"/><linearGradient id="Áåçûìÿííûé_ãðàäèåíò_41-5" x1="152.08" y1="109.95" x2="118.65" y2="8.67" gradientTransform="matrix(1, 0, 0, 1, 0, 0)" xlink:href="#Áåçûìÿííûé_ãðàäèåíò_41"/><linearGradient id="Áåçûìÿííûé_ãðàäèåíò_7-4" x1="96.89" y1="-1.86" x2="131.68" y2="66.22" gradientTransform="matrix(1, 0, 0, 1, 0, 0)" xlink:href="#Áåçûìÿííûé_ãðàäèåíò_7"/><linearGradient id="Áåçûìÿííûé_ãðàäèåíò_7-5" x1="97.02" y1="72.97" x2="86.17" y2="35.18" gradientTransform="matrix(1, 0, 0, 1, 0, 0)" xlink:href="#Áåçûìÿííûé_ãðàäèåíò_7"/><linearGradient id="Áåçûìÿííûé_ãðàäèåíò_7-6" x1="127.47" y1="68.46" x2="122.04" y2="10.84" gradientTransform="matrix(1, 0, 0, 1, 0, 0)" xlink:href="#Áåçûìÿííûé_ãðàäèåíò_7"/><linearGradient id="Áåçûìÿííûé_ãðàäèåíò_116" x1="224.09" y1="44.83" x2="211.11" y2="112.93" gradientTransform="translate(-12.21 21.77) rotate(-3.95)" xlink:href="#Áåçûìÿííûé_ãðàäèåíò_33"/><linearGradient id="Áåçûìÿííûé_ãðàäèåíò_41-6" x1="214.71" y1="84.58" x2="176.17" y2="114.27" gradientTransform="translate(-12.21 21.77) rotate(-3.95)" xlink:href="#Áåçûìÿííûé_ãðàäèåíò_41"/><linearGradient id="Áåçûìÿííûé_ãðàäèåíò_7-7" x1="205.2" y1="78.54" x2="194.22" y2="108.35" gradientTransform="translate(-12.21 21.77) rotate(-3.95)" xlink:href="#Áåçûìÿííûé_ãðàäèåíò_7"/><linearGradient id="Áåçûìÿííûé_ãðàäèåíò_116-2" x1="224.11" y1="33.19" x2="211.25" y2="100.71" gradientTransform="translate(-12.21 21.77) rotate(-3.95)" xlink:href="#Áåçûìÿííûé_ãðàäèåíò_33"/></defs><g class="cls-1"><g id="Layer_2" data-name="Layer 2"><g id="layer_1-2" data-name="layer 1"><path class="cls-2" d="M113.37,123.3a23.81,23.81,0,0,1,2.24-2.85,3.5,3.5,0,0,1,.24,1.24,9.12,9.12,0,0,1-.71,3,59.83,59.83,0,0,0-3.23,15.53,12.49,12.49,0,0,0-7-.58A74.69,74.69,0,0,1,113.37,123.3Z"/><path class="cls-3" d="M111.91,140.24a12,12,0,0,1,1.56.7,12.72,12.72,0,0,1,5.92,7.22c-2.47,4.53-5.8,8.67-8.52,13a5.62,5.62,0,0,1-1.11,1.4,1.9,1.9,0,0,1-1.67.46.88.88,0,0,1-.8-.95,11.43,11.43,0,0,1,.47-4.65c.67-2.1,3.75-3.73,3.39-6.23-.22-1.56-3-1.16-4.09-.65l-.1.06a19,19,0,0,0-3.73,3.17c-.34.3-.69.6-1,.87a16.28,16.28,0,0,1-5,2.58,4.93,4.93,0,0,1-2.76.22,2,2,0,0,1-1.27-2.14,28.35,28.35,0,0,0,11.16-13.89c.21-.58.42-1.17.65-1.74A12.49,12.49,0,0,1,111.91,140.24Z"/><path class="cls-4" d="M107,150.59c-.6,2.73-1.21,5.47-1.82,8.2-.14.62-.37,1.34-1,1.49a1.14,1.14,0,0,1-1.1-.41,2.94,2.94,0,0,1-.52-1.12,11.93,11.93,0,0,1-.36-4.12c.36-.27.71-.57,1-.87A19,19,0,0,1,107,150.59Z"/><path class="cls-5" d="M124.78,123.66a46.46,46.46,0,0,1-.29,7.72,52.52,52.52,0,0,1-3.22,12.82,32.57,32.57,0,0,1-1.88,4,12.72,12.72,0,0,0-5.92-7.22,12,12,0,0,0-1.56-.7,59.83,59.83,0,0,1,3.23-15.53,9.12,9.12,0,0,0,.71-3,3.5,3.5,0,0,0-.24-1.24,11.5,11.5,0,0,1,1.66-1.46c1.42-1,4-2.12,5.59-1S124.69,121.89,124.78,123.66Z"/><path class="cls-5" d="M140.73,163.68c2.56,8.77,2.51,17.36,2.28,26-1.88.35-3.78.61-5.72.79a107.93,107.93,0,0,0-.23-16.16,20.47,20.47,0,0,0-1.83-7.73c-1.56-3.08-4.32-5.48-7.15-7.67a8.47,8.47,0,0,1,2.26-1.9,6.17,6.17,0,0,1,6,0C138.77,158.31,140,161.13,140.73,163.68Z"/><path class="cls-6" d="M135.23,166.55a20.47,20.47,0,0,1,1.83,7.73,107.93,107.93,0,0,1,.23,16.16c-1.58.15-3.17.23-4.77.26a54.42,54.42,0,0,0-7.7-26.7c.51-1,1.07-2,1.65-2.88a21.2,21.2,0,0,1,1.61-2.24C130.91,161.07,133.67,163.47,135.23,166.55Z"/><path class="cls-7" d="M124.82,164a54.42,54.42,0,0,1,7.7,26.7,70.06,70.06,0,0,1-13.69-1.08A56.4,56.4,0,0,1,124.82,164Z"/><path class="cls-8" d="M127.54,161.73a35.91,35.91,0,0,0-6.91,18.18c3,2,7.13,1.85,9.45,0s3.19-5.16,2.71-8.43S129.73,164.56,127.54,161.73Z"/><path class="cls-5" d="M152.24,108.9c11.5,5.24,20,18.21,18.32,29.91a25.82,25.82,0,0,1-8.4,15.34c-5.91,5.36-13.81,9.41-22.92,7.33a23.35,23.35,0,0,1-3.28-1,17.53,17.53,0,0,0,15.47-3.8c5.25-4.69,7.54-12.21,8-19.91.35-5.4-.21-11.35-3.4-16.41-4-6.29-11.31-9.89-18-10.65a36.07,36.07,0,0,0-9.59.28A25,25,0,0,1,152.24,108.9Z"/><path class="cls-9" d="M156.06,120.35c3.19,5.06,3.75,11,3.4,16.41-.49,7.7-2.78,15.22-8,19.91a17.53,17.53,0,0,1-15.47,3.8A31.26,31.26,0,0,1,120.1,146a29.81,29.81,0,0,1-2.34-22.4A24.73,24.73,0,0,1,128.43,110a36.07,36.07,0,0,1,9.59-.28C144.75,110.46,152.09,114.06,156.06,120.35ZM138.63,130a11.77,11.77,0,0,0-2-9.9A7.37,7.37,0,0,0,131,117a21.89,21.89,0,0,1,1-6.9,15.68,15.68,0,0,0-2.91,7.11c-3.42.86-6,4.12-7,7.14a9.13,9.13,0,0,0-.5,2.17,10,10,0,0,0,2,6.88,7.31,7.31,0,0,0,4.61,2.8c.32,0,.65.08,1,.11a36.26,36.26,0,0,0,8.76,21.87,39.46,39.46,0,0,1-6.7-22A9.47,9.47,0,0,0,138.63,130Z"/><path class="cls-5" d="M136.65,120.11a11.77,11.77,0,0,1,2,9.9,9.47,9.47,0,0,1-7.45,6.17,39.46,39.46,0,0,0,6.7,22,36.26,36.26,0,0,1-8.76-21.87c-.33,0-.66-.06-1-.11a7.31,7.31,0,0,1-4.61-2.8,10,10,0,0,1-2-6.88,9.13,9.13,0,0,1,.5-2.17c1-3,3.61-6.28,7-7.14a15.68,15.68,0,0,1,2.91-7.11,21.89,21.89,0,0,0-1,6.9A7.37,7.37,0,0,1,136.65,120.11Zm1.41,7.77a9.8,9.8,0,0,0-.2-3c0-.1,0-.2-.07-.31s0-.21-.08-.31a2.68,2.68,0,0,0-.07-.27c-.06-.22-.14-.44-.22-.65a1.56,1.56,0,0,0-.06-.15,3.73,3.73,0,0,0-.15-.38c-.11-.26-.24-.52-.37-.77s-.26-.45-.4-.67a7.44,7.44,0,0,0-1.32-1.52l-.3-.25a5.27,5.27,0,0,0-3.41-1.11c-3.58.12-6.41,3.46-7.49,6.59a8.47,8.47,0,0,0-.43,1.85c-.29,3.23,1.53,7.2,5.16,7.79a8.11,8.11,0,0,0,4.23-.46,9.32,9.32,0,0,0,1.35-.65,8.54,8.54,0,0,0,1.05-.73,7.59,7.59,0,0,0,2.5-3.55,5.08,5.08,0,0,0,.15-.59A5.66,5.66,0,0,0,138.06,127.88Z"/><path class="cls-10" d="M137.86,124.86a9.8,9.8,0,0,1,.2,3,5.66,5.66,0,0,1-.13.84,5.08,5.08,0,0,1-.15.59,7.59,7.59,0,0,1-2.5,3.55,8.54,8.54,0,0,1-1.05.73,9.32,9.32,0,0,1-1.35.65,8.19,8.19,0,0,1-3.61.53,7.87,7.87,0,0,1-2.76-6.76,8.42,8.42,0,0,1,.42-1.85c1.09-3.13,3.92-6.47,7.49-6.59h.4l.3.25a7.44,7.44,0,0,1,1.32,1.52c.14.22.27.44.4.67s.26.51.37.77a3.73,3.73,0,0,1,.15.38,1.56,1.56,0,0,1,.06.15c.08.21.15.43.22.65a2.68,2.68,0,0,1,.07.27c0,.1.06.21.08.31S137.84,124.76,137.86,124.86Z"/><path class="cls-11" d="M134.82,119.58h-.4c-3.57.12-6.4,3.46-7.49,6.59a8.42,8.42,0,0,0-.42,1.85,7.87,7.87,0,0,0,2.76,6.76,8.19,8.19,0,0,0,3.61-.53,8.11,8.11,0,0,1-4.23.46c-3.63-.59-5.45-4.56-5.16-7.79a8.47,8.47,0,0,1,.43-1.85c1.08-3.13,3.91-6.47,7.49-6.59A5.27,5.27,0,0,1,134.82,119.58Z"/><path class="cls-12" d="M136.73,127.32a3.88,3.88,0,0,1-2.41,2.55,4.37,4.37,0,0,1-5.52-4.36,7.54,7.54,0,0,0-.28,4.14,5.27,5.27,0,0,0,2.79,3.16,3.69,3.69,0,0,0,4.16-1C136.44,130.69,136.44,128.85,136.73,127.32Z"/><path class="cls-13" d="M133.69,126.78c1.09-.33,2.31-1.15,2-2.6a2.75,2.75,0,0,0-2.89-1.91C130.2,122.66,130.45,127.78,133.69,126.78Z"/><path class="cls-14" d="M146.55,118.47a8.13,8.13,0,0,1,.82,6.71,13,13,0,0,1-3.52,5.21,31.49,31.49,0,0,1-12.65,7.5c0-.57,0-1.14,0-1.71a9.47,9.47,0,0,0,7.45-6.17,11.77,11.77,0,0,0-2-9.9A7.37,7.37,0,0,0,131,117a24.55,24.55,0,0,1,.5-5.27,23.45,23.45,0,0,1,10.62,2.88A12.25,12.25,0,0,1,146.55,118.47Zm-21.9,20.8a33.86,33.86,0,0,0,4.62-.84c-.08-.72-.13-1.43-.15-2.14-.33,0-.66-.06-1-.11a7.31,7.31,0,0,1-4.61-2.8,10,10,0,0,1-2-6.88,9.13,9.13,0,0,1,.5-2.17c1-3,3.61-6.28,7-7.14a16.27,16.27,0,0,1,1.85-5.49,15.83,15.83,0,0,0-6.36,1.26,24.71,24.71,0,0,0-6.75,10.68,28.28,28.28,0,0,0-.72,13.44,5.84,5.84,0,0,0,.87.85C119.88,139.49,122.43,139.52,124.65,139.27Z"/><path class="cls-15" d="M171.94,179.77a71.75,71.75,0,0,0,6.66,10.36c-1.92-.13-3.84-.31-5.78-.54A53,53,0,0,1,171.94,179.77Z"/><path class="cls-16" d="M191.2,178.17c2.16,3.67,4.2,7.37,6.06,11.13a77.59,77.59,0,0,1-18.66.83,71.75,71.75,0,0,1-6.66-10.36v-.46c.05-3.67.08-8.33,1.74-11.4a4.4,4.4,0,0,1,4.13-2.46C183.77,165.83,188.48,173.54,191.2,178.17Z"/><path class="cls-5" d="M171.94,179.77a53,53,0,0,0,.88,9.82c-1.09-.13-2.17-.28-3.26-.43a126.56,126.56,0,0,1-4.2-28.36A64.81,64.81,0,0,0,171.94,179.77Z"/><path class="cls-17" d="M199.84,188.79c-.85.2-1.71.36-2.58.51-1.86-3.76-3.9-7.46-6.06-11.13-2.72-4.63-7.43-12.34-13.39-12.72a4.4,4.4,0,0,0-4.13,2.46c-1.66,3.07-1.69,7.73-1.74,11.4v.46a64.81,64.81,0,0,1-6.58-19c-.12-3.64-.06-7.26.16-10.83.12-1.84.88-3.49,2.6-4a7.51,7.51,0,0,1,5.65,1,22.05,22.05,0,0,1,4.88,3.93A82.66,82.66,0,0,1,199.84,188.79Z"/><path class="cls-18" d="M171.42,168.37c1.47,3.4,3.63,7,6.93,8.51a6.5,6.5,0,0,0,8.42-2.67c2.73-5-.1-11.78-3.72-16.9-2.72-3.85-10.28-12.81-14.77-9.76-1.5,1-1.48,3.35-1.21,5.41A58.81,58.81,0,0,0,171.42,168.37Z"/><path class="cls-5" d="M150.51,112.07a55.12,55.12,0,0,1-29.81,5.43,16.91,16.91,0,0,1,5.93-5.41c4.22.31,8.08-.84,12.26-1.5A18.73,18.73,0,0,1,150.51,112.07Z"/><path class="cls-10" d="M140.33,53l0,.86c-.22,5.49-.92,11.33-1.25,16.89a30.83,30.83,0,0,0-10,1.63A55.74,55.74,0,0,1,125.6,59c-.48-4.57.29-9.46,3.07-13.11,1.64-2.16,3.86-3.41,6.33-1.92A11.38,11.38,0,0,1,139.61,50,17.62,17.62,0,0,1,140.33,53Z"/><path class="cls-10" d="M103.69,78.15a29.63,29.63,0,0,0-5.41,1.23,54.7,54.7,0,0,1-3.66-9.76A17.22,17.22,0,0,1,95,59.54,5.82,5.82,0,0,1,98,56.1a3.23,3.23,0,0,1,2.46.06C101.08,63.54,101.82,71,103.69,78.15Z"/><path class="cls-11" d="M123.76,81.28A28.45,28.45,0,0,1,116.32,94c-2.62-1.8-4.92-4.93-6.74-7.52A32.73,32.73,0,0,0,123.76,81.28Z"/><path class="cls-11" d="M129.07,72.37a30.83,30.83,0,0,1,10-1.63c0,.65-.07,1.3-.09,1.94q-6.68.69-13.29,1.78a50.94,50.94,0,0,1-5.11-28.31,20,20,0,0,1,1.85-7,9.26,9.26,0,0,1,5.29-4.76,8.82,8.82,0,0,1,8.39,2.33A14.37,14.37,0,0,1,140,44.75a39.14,39.14,0,0,1,.31,8.24,17.62,17.62,0,0,0-.72-3A11.38,11.38,0,0,0,135,43.93c-2.47-1.49-4.69-.24-6.33,1.92-2.78,3.65-3.55,8.54-3.07,13.11A55.74,55.74,0,0,0,129.07,72.37Z"/><path class="cls-11" d="M98.28,79.38a29.63,29.63,0,0,1,5.41-1.23q.14.57.3,1.14c-2.76.77-5.51,1.6-8.23,2.49a40.2,40.2,0,0,1-5.83-23,28.09,28.09,0,0,1,2-9.32,8,8,0,0,1,1.55-2.52,3.55,3.55,0,0,1,2.64-1.18A3.83,3.83,0,0,1,99.22,48a11.48,11.48,0,0,1,.83,3.95c.13,1.39.25,2.79.37,4.19A3.23,3.23,0,0,0,98,56.1,5.82,5.82,0,0,0,95,59.54a17.22,17.22,0,0,0-.42,10.08A54.7,54.7,0,0,0,98.28,79.38Z"/><path class="cls-19" d="M140.33,53a39.14,39.14,0,0,0-.31-8.24,14.37,14.37,0,0,0-3.93-8.06,8.82,8.82,0,0,0-8.39-2.33,9.26,9.26,0,0,0-5.29,4.76,20,20,0,0,0-1.85,7,50.94,50.94,0,0,0,5.11,28.31q6.62-1.09,13.29-1.78c0-.64.06-1.29.09-1.94.33-5.56,1-11.4,1.25-16.89ZM103.69,78.15c-1.87-7.13-2.61-14.61-3.27-22-.12-1.4-.24-2.8-.37-4.19A11.48,11.48,0,0,0,99.22,48a3.83,3.83,0,0,0-3.09-2.3,3.55,3.55,0,0,0-2.64,1.18,8,8,0,0,0-1.55,2.52,28.09,28.09,0,0,0-2,9.32,40.2,40.2,0,0,0,5.83,23c2.72-.89,5.47-1.72,8.23-2.49Q103.82,78.72,103.69,78.15ZM156.3,48.51c1,12.86-2.17,25.78-5.67,38.21-2.55,2.12-5.27,4.54-7.82,6.65a44.32,44.32,0,0,0,2.91,18.45,124.11,124.11,0,0,1-39.36,4,111.52,111.52,0,0,1-6.3-17c-3-1.43-9.64-5.54-9.64-5.54s-3.54-10.43-4.49-14a73.58,73.58,0,0,1-2.48-23.44c.88-13.31,6.52-26.64,16.9-35S126.11,9.9,137.82,16.3C149.14,22.48,155.28,35.64,156.3,48.51ZM116.32,94a28.45,28.45,0,0,0,7.44-12.74,32.73,32.73,0,0,1-14.18,5.22C111.4,89.09,113.7,92.22,116.32,94Z"/><path class="cls-20" d="M180.68,44.32c-.88,8.57-3.92,17.06-6.74,25.3-.8,2.33-1.58,4.69-2.31,7.09a3,3,0,0,1-1.57-.6c-2.26-1.56-3.13-4.22-3.55-7.07,0-.11,0-.22,0-.34,1.52-3.09,3-6.2,4.39-9.36A64.91,64.91,0,0,0,176,42.09a4,4,0,0,1,4,1.08A4.57,4.57,0,0,1,180.68,44.32Z"/><path class="cls-15" d="M181.85,46.05a12.46,12.46,0,0,0-1-3.75,5.3,5.3,0,0,0-1.16-1.57,4.74,4.74,0,0,0-3.46-1.19,6.35,6.35,0,0,0-3,.86,13.16,13.16,0,0,0-4.57,5.31,36.94,36.94,0,0,0-3.6,25c0,.2.09.4.13.6.71,3,1.94,5.64,4.59,7.17A4.44,4.44,0,0,0,171,79c2.24.55,3.75-1.38,5.09-3.62a43.76,43.76,0,0,0,4.65-11A45.52,45.52,0,0,0,181.85,46.05Zm-6.46,27.56c-1.06,1.71-2.23,3.19-3.76,3.1a3,3,0,0,1-1.57-.6c-2.26-1.56-3.13-4.22-3.55-7.07,0-.11,0-.22,0-.34a34.64,34.64,0,0,1,4.14-21.6,11.49,11.49,0,0,1,4-4.5,5.07,5.07,0,0,1,1.34-.51,4,4,0,0,1,4,1.08,4.57,4.57,0,0,1,.75,1.15,10.68,10.68,0,0,1,.81,3.64A42.41,42.41,0,0,1,175.39,73.61Z"/><path class="cls-21" d="M181.49,48a42.41,42.41,0,0,1-6.1,25.65c-1.06,1.71-2.23,3.19-3.76,3.1.73-2.4,1.51-4.76,2.31-7.09,2.82-8.24,5.86-16.73,6.74-25.3A10.68,10.68,0,0,1,181.49,48Zm-10.88-.86a34.64,34.64,0,0,0-4.14,21.6c1.52-3.09,3-6.2,4.39-9.36A64.91,64.91,0,0,0,176,42.09a5.07,5.07,0,0,0-1.34.51A11.49,11.49,0,0,0,170.61,47.1Z"/><path class="cls-5" d="M104,115.68c-.84-.07-1.69-.15-2.52-.24l-6.76-12.17A60.61,60.61,0,0,1,104,115.68Zm49-111.22a34.66,34.66,0,0,1,23.17,28.29,37.6,37.6,0,0,1,.14,6.79,4.74,4.74,0,0,1,3.46,1.19,5.3,5.3,0,0,1,1.16,1.57,40.55,40.55,0,0,0-.39-8.86C178.21,19.52,166.65,7.61,152.91,4.46Zm12.27,66.85c-2.07,4.24-4.11,8.5-5.77,12.92-2.9,7.74-4.62,16.21-3.18,24.27A115.91,115.91,0,0,0,169,103c-1.55-7.88-.25-16,2-24a4.44,4.44,0,0,1-1.21-.5C167.12,77,165.89,74.26,165.18,71.31Z"/><path class="cls-22" d="M181.31,23.48A38.57,38.57,0,0,0,165.65,5.37c-7-4.07-15.36-5.49-23.48-5.36C126.66.25,110,3.9,98,14.26a50.88,50.88,0,0,0-17.16,33c-1.07,10.55.9,21.9,3.62,32.32.41,1.59.84,3.17,1.28,4.71a101.7,101.7,0,0,0,10.49,24.13c.62,1,3.39,6.8,4.51,6.92l.68.07-6.76-12.17A60.61,60.61,0,0,1,104,115.68l2.41.17a111.52,111.52,0,0,1-6.3-17c-3-1.43-9.64-5.54-9.64-5.54s-3.54-10.43-4.49-14a73.58,73.58,0,0,1-2.48-23.44c.88-13.31,6.52-26.64,16.9-35S126.11,9.9,137.82,16.3c11.32,6.18,17.46,19.34,18.48,32.21s-2.17,25.78-5.67,38.21c-2.55,2.12-5.27,4.54-7.82,6.65a44.32,44.32,0,0,0,2.91,18.45q5.34-1.41,10.51-3.32c-1.44-8.06.28-16.53,3.18-24.27,1.66-4.42,3.7-8.68,5.77-12.92,0-.2-.08-.4-.13-.6a36.94,36.94,0,0,1,3.6-25,13.16,13.16,0,0,1,4.57-5.31,6.35,6.35,0,0,1,3-.86,37.6,37.6,0,0,0-.14-6.79A34.66,34.66,0,0,0,152.91,4.46c13.74,3.15,25.3,15.06,27.54,29a40.55,40.55,0,0,1,.39,8.86,12.46,12.46,0,0,1,1,3.75,45.52,45.52,0,0,1-1.13,18.29,43.76,43.76,0,0,1-4.65,11c-1.34,2.24-2.85,4.17-5.09,3.62-2.22,8-3.52,16.11-2,24,1.85-.94,3.67-1.92,5.45-3,0-12,4.38-23.6,7.55-35.32a86.07,86.07,0,0,0,3.17-17.38A52.29,52.29,0,0,0,181.31,23.48Z"/><path class="cls-23" d="M145.68,1.26a20.39,20.39,0,0,1,4.23,12.25,34.07,34.07,0,0,1-2.44,12.91C143.76,36.29,137,44.77,129,51.4s-17.32,11.49-26.91,15.35a29,29,0,0,1-8.65,2.4A11.29,11.29,0,0,1,85,66.64c-5.88-5.31-4.23-16.91-2.76-23.76A52.1,52.1,0,0,1,94.13,19.26C106.64,5.17,127.37-.44,145.68,1.26Z"/><path class="cls-24" d="M92.67,73.43a4.8,4.8,0,0,0,1.07,1.65,1.9,1.9,0,0,0,1.83.47A2.68,2.68,0,0,0,97,73.62c1.63-5.4,1.12-11.21.14-16.76a6.8,6.8,0,0,0-.73-2.38,2.25,2.25,0,0,0-4-.24C88.59,59.33,90.24,68.12,92.67,73.43Z"/><path class="cls-25" d="M122.27,63.73a8.38,8.38,0,0,0,1.6,3.18,3.4,3.4,0,0,0,3.21,1.17c1.8-.45,2.52-2.56,2.89-4.37,1.42-6.93,2.75-15.28-.39-21.91a4.17,4.17,0,0,0-3.3-2.54,4,4,0,0,0-3,1.26,8.28,8.28,0,0,0-1.7,2.82C119.19,49.44,120.32,57.6,122.27,63.73Z"/><path class="cls-26" d="M213,102.58c-.37-.18-.73-.36-1.09-.56a36.44,36.44,0,0,1-15.85-17.28c.14-.4.26-.8.38-1.2a35.23,35.23,0,0,0-12.4-15.23c-1.49-1-2.11-2.39-1.37-4.06a5,5,0,0,1,4.47-2.65,10.56,10.56,0,0,1,5.21,1.54,25.41,25.41,0,0,1,9.21,8.57c-.14-.21,2.77-4.77,3-5.33a35.06,35.06,0,0,0,3.64-15.12c0-1.13-.39-2.72-.48-4.19s.13-3,1.45-3.72a3.07,3.07,0,0,1,3,.24,6.92,6.92,0,0,1,2.11,2.32c4.2,6.59,4.9,15.58,1.31,22.53a40.1,40.1,0,0,1,4.11,2,45.92,45.92,0,0,0,3.45-21.29c-.13-1.57-.23-3.41,1-4.43a3.16,3.16,0,0,1,3.92.28,7.75,7.75,0,0,1,2.13,3.65,31.87,31.87,0,0,1-3.4,26.69c.82.68,1.62,1.38,2.39,2.11A30,30,0,0,0,235,67.22c.53-1.66,1.18-3.62,2.84-4.11a3.17,3.17,0,0,1,3.12,1.07,6.33,6.33,0,0,1,1.34,3.17c.86,5-1.71,11.08-3.73,15.55A60.3,60.3,0,0,1,229.47,97c-2.33,2.72-4.78,5.37-7.36,7.86A20.57,20.57,0,0,1,213,102.58Z"/><path class="cls-5" d="M222.11,104.89a77,77,0,0,1-18.47,13.58c-7.52,3.84-20.81,9.62-28.77,4.41a8.87,8.87,0,0,1-3.55-4.69,11,11,0,0,0,5.32,2.69,21,21,0,0,0,8.94-.47A48.35,48.35,0,0,0,213,102.58,20.57,20.57,0,0,0,222.11,104.89Z"/><path class="cls-27" d="M211.92,102c.36.2.72.38,1.09.56a48.35,48.35,0,0,1-27.43,17.83,21,21,0,0,1-8.94.47,11,11,0,0,1-5.32-2.69,6.74,6.74,0,0,1,.09-4.52c1.06-2.73,3.78-4.36,6.21-6a52.24,52.24,0,0,0,12.17-11.19,40.15,40.15,0,0,0,6.28-11.74A36.44,36.44,0,0,0,211.92,102Z"/><path class="cls-28" d="M203,96.87a33.21,33.21,0,0,1-10.19,10.38,10.87,10.87,0,0,1-3.73,1.7,4.75,4.75,0,0,1-3.91-.79,2.87,2.87,0,0,1-.51-4.15,12.16,12.16,0,0,1,2.34-2.36,34.68,34.68,0,0,0,9.73-14.06A21,21,0,0,0,203,96.87Z"/><path class="cls-29" d="M200.77,70.55c.28.38.55.77.8,1.16-.14-.21,2.77-4.77,3-5.33a35.06,35.06,0,0,0,3.64-15.12c0-1.13-.39-2.72-.48-4.19a6.7,6.7,0,0,1,.1-1.81,38.21,38.21,0,0,1-4.4,31.44A31.09,31.09,0,0,0,200.77,70.55Zm23.46,32.23a81.1,81.1,0,0,1-12.76-5c-3.25-1.6-6.48-3.49-8.67-6.37s-3.21-6.77-4.68-10.23a34.45,34.45,0,0,0-11.71-14.51,16.88,16.88,0,0,1-2.7-2.11,5.75,5.75,0,0,1-.69-.93,3.56,3.56,0,0,0-.34.6c-.74,1.67-.12,3,1.37,4.06a35.23,35.23,0,0,1,12.4,15.23c-.12.4-.24.8-.38,1.2A36.44,36.44,0,0,0,211.92,102c.36.2.72.38,1.09.56a20.57,20.57,0,0,0,9.1,2.31C222.83,104.2,223.53,103.49,224.23,102.78Zm-4.76-32.46a21,21,0,0,1,1.37,1.6,22.32,22.32,0,0,0,3.9-11.78,83.74,83.74,0,0,0-.51-12.56,6.81,6.81,0,0,1,.29-3.06,2.84,2.84,0,0,0-.34.22c-1.21,1-1.11,2.86-1,4.43a45.92,45.92,0,0,1-3.45,21.29Zm18.35-7.21c-1.66.49-2.31,2.45-2.84,4.11a29.89,29.89,0,0,1-5.6,10,6.44,6.44,0,0,1,1.32,3.22,10.24,10.24,0,0,0,4.09-5.56c.77-2.22,1.12-4.56,1.76-6.81A14.15,14.15,0,0,1,239,63.06,2.72,2.72,0,0,0,237.82,63.11Z"/><path class="cls-5" d="M3.4,35.08A225.79,225.79,0,0,1,0,3.66l4.39-.17c.2,5.13.57,10.28,1.12,15.39l7.19-.39c-.35-4.89-.53-9.8-.53-14.69h4.4a196.52,196.52,0,0,0,2,28.05l-4.36.62q-.67-4.77-1.13-9.6l-7,.38q.7,5.57,1.7,11ZM23.46,30.4H21.32l-.06-2.14c-.07-2.73-.26-5.43-.47-8.29-.31-4.34-.63-8.83-.53-13.66l0-2.36,2.35.22a102.8,102.8,0,0,0,11,.46L33.72,9c-2.68.05-5.94,0-9.08-.27,0,2.23.11,4.41.24,6.54l7.68-.38.22,4.39-7.6.38c.15,2.15.3,4.21.4,6.29,3.71-.13,7.38-.55,9.42-.82l.57,4.36A100.68,100.68,0,0,1,23.46,30.4Zm16.68-.64h-.31l-2.06,0L36.25,4.22,40.64,4l1.27,21.35c1.26-.06,2.5-.19,3.87-.33l.52-.05.44,4.37-.52.06A60.07,60.07,0,0,1,40.14,29.76Zm9-.85V26.63A173,173,0,0,0,47.64,4L52,3.41a175.59,175.59,0,0,1,1.55,20.87l1-.08c1.11-.1,2.27-.2,3.43-.24l.17,4.39c-1.05,0-2.11.13-3.23.23s-2.27.2-3.43.24ZM60,28.23,60,25.85c-.21-7-.7-14-1.44-20.91l-.25-2.32,2.34-.11A54.36,54.36,0,0,1,70,2.84l1.7.21.21,1.69a183.76,183.76,0,0,1,1.72,20.72l0,2.29-2.29-.07A63.09,63.09,0,0,0,62.4,28ZM63.15,6.84c.54,5.49.92,11,1.13,16.55,1.55-.1,3.15-.15,4.86-.14C69,17.82,68.38,12.45,67.72,7,66.26,6.89,64.74,6.83,63.15,6.84ZM80.81,28.2l-4.37-.51c.18-1.56.31-3.16.38-4.74l4.39.19C81.14,24.83,81,26.53,80.81,28.2Zm-3.93-8.66A66.06,66.06,0,0,0,74.51,2.61l4.24-1.17A70.41,70.41,0,0,1,81.28,19.5Z"/><path class="cls-5" d="M62.78,57.66a24.38,24.38,0,0,1-19.7-23.42c.92-.1,1.06-.08,2-.19a22.94,22.94,0,0,0,5,14.32,21.87,21.87,0,0,0,12.71,7.51C62.72,56.45,62.83,57.1,62.78,57.66Z"/></g></g></g></svg>