<?xml version="1.0" encoding="utf-8"?>
<!-- Generator: Adobe Illustrator 17.0.0, SVG Export Plug-In . SVG Version: 6.00 Build 0)  -->
<!DOCTYPE svg PUBLIC "-//W3C//DTD SVG 1.1//EN" "http://www.w3.org/Graphics/SVG/1.1/DTD/svg11.dtd">
<svg version="1.1" id="Layer_1" xmlns="http://www.w3.org/2000/svg" xmlns:xlink="http://www.w3.org/1999/xlink" x="0px" y="0px"
	 width="2500px" height="2500px" viewBox="0 0 2500 2500" enable-background="new 0 0 2500 2500" xml:space="preserve">
<path fill="#FCFCFC" d="M0,1249.999c0-345.052,122.07-639.648,366.213-883.788C610.351,122.07,904.947,0,1250.001,0
	c345.049,0,639.645,122.07,883.788,366.211C2377.927,610.351,2500,904.947,2500,1249.999s-122.07,639.648-366.211,883.788
	S1595.053,2500,1250.001,2500c-345.054,0-639.65-122.07-883.788-366.213C122.07,1889.649,0,1595.048,0,1249.999z M136.719,1249.999
	c0,305.992,109.049,568.033,327.148,786.135c218.099,218.096,480.143,327.148,786.135,327.148
	c305.989,0,568.033-109.049,786.132-327.148s327.148-480.143,327.148-786.135c0-305.989-109.047-568.033-327.148-786.132
	c-218.099-218.099-480.145-327.148-786.132-327.148c-305.992,0-568.033,109.049-786.135,327.148
	C245.768,681.966,136.719,944.009,136.719,1249.999z M488.283,1518.553c-6.51-6.51-6.51-13.021,0-19.531
	c13.018-13.021,29.297-17.904,48.826-14.648c19.531,3.255,30.924,6.51,34.18,9.766c22.786,9.766,48.016,31.737,75.682,65.919
	c27.667,34.18,49.641,57.779,65.919,70.799c78.125,65.104,157.875,69.987,239.255,14.648c6.51-22.786,17.091-42.318,31.737-58.596
	c14.646-16.276,28.484-27.667,41.505-34.18c13.023-6.51,35.81-16.276,68.362-29.297c-107.424-9.766-194.5-28.484-261.231-56.154
	c-66.732-27.669-119.63-62.661-158.693-104.979c-52.083-58.594-83.823-135.091-95.216-229.492
	c-11.396-94.401-4.07-180.664,21.974-258.789c19.531-48.828,47.201-92.771,83.005-131.836
	c-26.042-81.38-21.159-174.153,14.648-278.32c104.167,6.51,198.568,42.318,283.203,107.422
	c162.76-42.318,332.031-43.945,507.809-4.883c22.786-16.276,57.781-36.62,104.979-61.036
	c47.201-24.414,106.609-38.25,178.224-41.505c13.021,35.807,21.974,78.125,26.857,126.953s2.443,94.401-7.323,136.719
	c74.867,78.125,113.93,182.291,117.185,312.5c0,104.167-17.901,190.429-53.708,258.789
	c-35.807,68.359-99.284,125.325-190.43,170.896c-61.849,29.299-143.229,47.201-244.14,53.711
	c45.575,22.786,78.94,46.388,100.099,70.802c21.161,24.414,34.995,62.661,41.508,114.745v153.812l4.88,148.924
	c9.766,16.278,21.161,30.112,34.182,41.507c13.021,11.393,24.414,19.531,34.18,24.414c9.763,4.883,13.021,12.208,9.763,21.974
	c-3.255,9.766-16.276,14.648-39.06,14.648c-55.341,0-99.284-19.531-131.836-58.596c-9.766-16.276-14.648-35.805-14.648-58.594
	v-234.375c0-26.042-6.51-44.76-19.531-56.154c-13.021-11.396-26.042-18.719-39.063-21.974v307.617
	c0,55.339,6.51,91.146,19.531,107.422s21.159,32.554,24.417,48.828c3.255,3.255,0.813,5.695-7.325,7.323
	c-8.136,1.625-21.971-0.813-41.505-7.323c-42.318-9.766-71.615-31.74-87.891-65.919c-16.276-34.18-24.414-70.802-24.414-109.865
	V1669.92h-63.476v302.734c0,39.063-8.141,76.5-24.417,112.305c-22.784,45.575-65.104,69.987-126.95,73.242
	c-9.766-3.255-14.648-6.51-14.648-9.763c3.255-3.258,13.021-19.531,29.297-48.828c3.255-6.51,7.325-19.531,12.208-39.063
	c4.885-19.531,7.325-42.318,7.325-68.359v-307.619c-13.021,3.255-25.229,10.578-36.622,21.974
	c-11.393,11.396-17.091,30.112-17.091,56.154v234.375c0,22.784-4.883,42.318-14.648,58.594
	c-29.297,39.063-73.242,58.596-131.833,58.596c-22.786,0-35.807-4.883-39.062-14.648c-3.258-6.51-2.443-12.208,2.443-17.091
	s12.208-10.581,21.974-17.091s16.276-11.396,19.531-14.648c13.021-9.766,22.784-22.786,29.297-39.063
	c9.766-13.021,12.206-47.201,7.323-102.539c-4.883-55.339-5.698-91.146-2.443-107.422c-84.638,29.297-170.898,14.646-258.791-43.945
	c-26.042-26.042-52.083-63.479-78.125-112.305C585.937,1609.699,546.874,1567.381,488.283,1518.553L488.283,1518.553z"/>
</svg>
