<?xml version="1.0" encoding="utf-8"?>
<!-- Generator: Adobe Illustrator 17.0.0, SVG Export Plug-In . SVG Version: 6.00 Build 0)  -->
<!DOCTYPE svg PUBLIC "-//W3C//DTD SVG 1.1//EN" "http://www.w3.org/Graphics/SVG/1.1/DTD/svg11.dtd">
<svg version="1.1" id="Layer_1" xmlns="http://www.w3.org/2000/svg" xmlns:xlink="http://www.w3.org/1999/xlink" x="0px" y="0px"
	 width="2490px" height="2500px" viewBox="0 0 2490 2500" enable-background="new 0 0 2490 2500" xml:space="preserve">
<g>
	<path fill="#F9F9F9" d="M0,183.366C0,84.913,82.423,5,184.027,5h2121.947C2407.616,5,2490,84.913,2490,183.366v2133.298
		c0,98.481-82.384,178.337-184.027,178.337H184.027C82.433,2495,0,2415.155,0,2316.693V183.337V183.366z"/>
	<path fill="#262122" d="M756.688,2088.799V967.794H384.083V2088.8h372.644L756.688,2088.799L756.688,2088.799z M570.463,814.766
		c129.908,0,210.784-86.08,210.784-193.656c-2.432-110.027-80.876-193.704-208.314-193.704
		c-127.525,0-210.814,83.678-210.814,193.695c0,107.576,80.847,193.656,205.902,193.656h2.412L570.463,814.766z M962.93,2088.799
		h372.576v-625.953c0-33.459,2.432-67.006,12.275-90.904c26.923-66.967,88.23-136.289,191.185-136.289
		c134.791,0,188.744,102.79,188.744,253.503v599.643h372.566v-642.751c0-344.311-183.793-504.536-428.932-504.536
		c-200.98,0-289.249,112.332-338.29,188.841h2.48V967.832H962.949c4.863,105.164-0.029,1121.006-0.029,1121.006L962.93,2088.799z"/>
</g>
</svg>
